<?xml version="1.0" encoding="utf-8"?>
<!-- Generator: Adobe Illustrator 24.2.3, SVG Export Plug-In . SVG Version: 6.00 Build 0)  -->
<svg version="1.1" id="bold" xmlns="http://www.w3.org/2000/svg" xmlns:xlink="http://www.w3.org/1999/xlink" x="0px" y="0px"
	 viewBox="0 0 512 512" style="enable-background:new 0 0 512 512;" xml:space="preserve">
<style type="text/css">
	.st0{fill:#F2FCF7;}
	.st1{fill:#24C48A;}
	.st2{fill:#96EDCC;}
</style>
<path class="st0" d="M416,512H96c-53,0-96-43-96-96V96C0,43,43,0,96,0h320c53,0,96,43,96,96v320C512,469,469,512,416,512z"/>
<circle class="st1" cx="256" cy="192" r="42.7"/>
<path class="st1" d="M290.7,256h-69.3c-27.9,0-50.7,22.7-50.7,50.7v26.7c0,4.4,3.6,8,8,8h154.7c4.4,0,8-3.6,8-8v-26.7
	C341.3,278.7,318.6,256,290.7,256z"/>
<g>
	<path class="st2" d="M181.3,128H160c-17.6,0-32,14.4-32,32v21.3c0,5.9,4.8,10.7,10.7,10.7s10.7-4.8,10.7-10.7V160
		c0-5.9,4.8-10.7,10.7-10.7h21.3c5.9,0,10.7-4.8,10.7-10.7S187.2,128,181.3,128z"/>
	<path class="st2" d="M181.3,362.7H160c-5.9,0-10.7-4.8-10.7-10.7v-21.3c0-5.9-4.8-10.7-10.7-10.7s-10.7,4.8-10.7,10.7V352
		c0,17.6,14.4,32,32,32h21.3c5.9,0,10.7-4.8,10.7-10.7S187.2,362.7,181.3,362.7z"/>
	<path class="st2" d="M352,128h-21.3c-5.9,0-10.7,4.8-10.7,10.7s4.8,10.7,10.7,10.7H352c5.9,0,10.7,4.8,10.7,10.7v21.3
		c0,5.9,4.8,10.7,10.7,10.7s10.7-4.8,10.7-10.7V160C384,142.4,369.6,128,352,128L352,128z"/>
	<path class="st2" d="M373.3,320c-5.9,0-10.7,4.8-10.7,10.7V352c0,5.9-4.8,10.7-10.7,10.7h-21.3c-5.9,0-10.7,4.8-10.7,10.7
		s4.8,10.7,10.7,10.7H352c17.6,0,32-14.4,32-32v-21.3C384,324.8,379.2,320,373.3,320z"/>
</g>
</svg>
