<?xml version="1.0" encoding="utf-8"?>
<!-- Generator: Adobe Illustrator 24.2.3, SVG Export Plug-In . SVG Version: 6.00 Build 0)  -->
<svg version="1.1" id="bold" xmlns="http://www.w3.org/2000/svg" xmlns:xlink="http://www.w3.org/1999/xlink" x="0px" y="0px"
	 viewBox="0 0 512 512" style="enable-background:new 0 0 512 512;" xml:space="preserve">
<style type="text/css">
	.st0{fill:#F2FCF7;}
	.st1{fill:#24C48A;}
	.st2{fill:#96EDCC;}
</style>
<path class="st0" d="M416,512H96c-53,0-96-43-96-96V96C0,43,43,0,96,0h320c53,0,96,43,96,96v320C512,469,469,512,416,512z"/>
<path class="st1" d="M280,128H157.3c-16.2,0-29.3,13.1-29.3,29.3v165.3c0,16.2,13.1,29.3,29.3,29.3h70.3c-5.8-12.2-9-25.7-9-40
	c0-12.3,2.4-24,6.7-34.8c-0.4,0.1-0.8,0.1-1.4,0.1h-53.3c-5.9,0-10.7-4.8-10.7-10.7s4.8-10.7,10.7-10.7H224c4,0,7.7,2.4,9.4,5.8
	c6.9-10.8,15.9-20,26.4-27.1h-89.2c-5.9,0-10.7-4.8-10.7-10.7s4.8-10.7,10.7-10.7h96c5.9,0,10.7,4.8,10.7,10.7c0,0.5,0,1-0.1,1.4
	c9.9-4,20.8-6.4,32.1-6.6v-61.4C309.3,141.1,296.2,128,280,128L280,128z M213.3,192h-42.7c-5.9,0-10.7-4.8-10.7-10.7
	s4.8-10.7,10.7-10.7h42.7c5.9,0,10.7,4.8,10.7,10.7S219.2,192,213.3,192L213.3,192z"/>
<path class="st2" d="M312,240c-39.7,0-72,32.3-72,72s32.3,72,72,72s72-32.3,72-72S351.7,240,312,240z M341.3,322.7h-18.7v18.7
	c0,5.9-4.8,10.7-10.7,10.7s-10.7-4.8-10.7-10.7v-18.7h-18.7c-5.9,0-10.6-4.8-10.6-10.7s4.8-10.7,10.7-10.7h18.7v-18.7
	c0-5.9,4.8-10.7,10.7-10.7s10.7,4.8,10.7,10.7v18.7h18.7c5.9,0,10.7,4.8,10.7,10.7S347.2,322.7,341.3,322.7L341.3,322.7z"/>
</svg>
