<?xml version="1.0" encoding="utf-8"?>
<!-- Generator: Adobe Illustrator 24.2.3, SVG Export Plug-In . SVG Version: 6.00 Build 0)  -->
<svg version="1.1" id="Layer_1" xmlns="http://www.w3.org/2000/svg" xmlns:xlink="http://www.w3.org/1999/xlink" x="0px" y="0px"
	 viewBox="0 0 512 512" style="enable-background:new 0 0 512 512;" xml:space="preserve">
<style type="text/css">
	.st0{fill:#F2FCF7;}
	.st1{fill:#96EDCC;}
	.st2{fill:#24C48A;}
</style>
<g id="BG">
	<path class="st0" d="M416,512H96c-53,0-96-43-96-96V96C0,43,43,0,96,0h320c53,0,96,43,96,96v320C512,469,469,512,416,512z"/>
</g>
<g id="Layer_1_1_">
	<g>
		<path class="st1" d="M288,202.7c-5.9,0-10.7-4.8-10.7-10.7v-32c0-5.9-4.8-10.7-10.7-10.7H152c-5.9,0-10.7-4.8-10.7-10.7
			S146.1,128,152,128h114.7c17.6,0,32,14.4,32,32v32C298.7,197.9,293.9,202.7,288,202.7z"/>
	</g>
	<g>
		<path class="st1" d="M266.7,352h-37.3c-5.9,0-10.7-4.8-10.7-10.7c0-5.9,4.8-10.7,10.7-10.7h37.3c5.9,0,10.7-4.8,10.7-10.7v-42.7
			c0-5.9,4.8-10.7,10.7-10.7c5.9,0,10.7,4.8,10.7,10.7V320C298.7,337.6,284.3,352,266.7,352z"/>
	</g>
	<g>
		<path class="st2" d="M220.1,150.4L156,129c-2.1-0.7-4.3-1-6.6-1c-11.8,0-21.3,9.6-21.3,21.3v192c0,9.1,5.8,17.2,14.5,20.3
			l64.2,21.4c2.2,0.7,4.3,1,6.6,1c11.8,0,21.3-9.6,21.3-21.3v-192C234.7,161.6,228.9,153.4,220.1,150.4z"/>
		<path class="st2" d="M326.6,287.2c-4-1.6-6.6-5.5-6.6-9.9v-32h-42.7c-5.9,0-10.7-4.8-10.7-10.7s4.8-10.7,10.7-10.7H320v-32
			c0-4.3,2.6-8.2,6.6-9.9s8.6-0.7,11.6,2.3l42.7,42.7c4.2,4.2,4.2,10.9,0,15.1l-42.7,42.7C335.2,287.9,330.6,288.8,326.6,287.2z"/>
	</g>
</g>
</svg>
