<?xml version="1.0" encoding="utf-8"?>
<!-- Generator: Adobe Illustrator 24.2.3, SVG Export Plug-In . SVG Version: 6.00 Build 0)  -->
<svg version="1.1" id="Layer_1" xmlns="http://www.w3.org/2000/svg" xmlns:xlink="http://www.w3.org/1999/xlink" x="0px" y="0px"
	 viewBox="0 0 512 512" style="enable-background:new 0 0 512 512;" xml:space="preserve">
<style type="text/css">
	.st0{fill:#F2FCF7;}
	.st1{fill:#96EDCC;}
	.st2{fill:#24C48A;}
</style>
<g id="BG">
	<path class="st0" d="M416,512H96c-53,0-96-43-96-96V96C0,43,43,0,96,0h320c53,0,96,43,96,96v320C512,469,469,512,416,512z"/>
</g>
<g id="solid">
	<g>
		<g>
			<ellipse class="st1" cx="314.7" cy="288" rx="69.3" ry="21.3"/>
		</g>
		<g>
			<path class="st1" d="M314.7,346.7c38.3,0,69.3-9.6,69.3-21.3v-13.5c-21.8,12.6-59.4,13.5-69.3,13.5s-47.5-0.9-69.3-13.5v13.5
				C245.3,337.1,276.4,346.7,314.7,346.7z"/>
		</g>
		<g>
			<path class="st1" d="M314.7,362.7c-9.9,0-47.5-0.9-69.3-13.5v13.5c0,11.8,31,21.3,69.3,21.3s69.3-9.6,69.3-21.3v-13.5
				C362.2,361.7,324.6,362.7,314.7,362.7z"/>
		</g>
	</g>
	<g>
		<path class="st2" d="M229.3,284.1l0.5,0.3c4.8-31.9,71.1-33.7,84.9-33.7c10,0,47.6,1,69.3,13.7V157.3c0-16.2-13.1-29.3-29.3-29.3
			H157.3c-16.2,0-29.3,13.2-29.3,29.3v112c0,16.2,13.2,29.3,29.3,29.3h72V284.1z M194.7,176H168c-4.4,0-8-3.6-8-8s3.6-8,8-8h26.7
			c4.4,0,8,3.6,8,8S199.1,176,194.7,176z M256,176c20.6,0,37.3,16.8,37.3,37.3s-16.7,37.3-37.3,37.3s-37.3-16.8-37.3-37.3
			S235.4,176,256,176z"/>
	</g>
</g>
</svg>
