<?xml version="1.0" encoding="utf-8"?>
<!-- Generator: Adobe Illustrator 24.2.3, SVG Export Plug-In . SVG Version: 6.00 Build 0)  -->
<svg version="1.1" id="Layer_1" xmlns="http://www.w3.org/2000/svg" xmlns:xlink="http://www.w3.org/1999/xlink" x="0px" y="0px"
	 viewBox="0 0 512 512" style="enable-background:new 0 0 512 512;" xml:space="preserve">
<style type="text/css">
	.st0{fill:#F2FCF7;}
	.st1{fill:#96EDCC;}
	.st2{fill:#24C48A;}
</style>
<path class="st0" d="M416,512H96c-53,0-96-43-96-96V96C0,43,43,0,96,0h320c53,0,96,43,96,96v320C512,469,469,512,416,512z"/>
<path class="st1" d="M237.3,341.3H200c-4.4,0-8-3.6-8-8V320c0-14.7,12-26.7,26.7-26.7c5.9,0,10.7-4.8,10.7-10.7s-4.8-10.7-10.7-10.7
	H200c-4.4,0-8-3.6-8-8c0-4.4,3.6-8,8-8h18.7c14.7,0,26.7,12,26.7,26.7s-12,26.7-26.7,26.7c-5.9,0-10.7,4.8-10.7,10.7v5.3h29.3
	c4.4,0,8,3.6,8,8C245.3,337.7,241.7,341.3,237.3,341.3z"/>
<path class="st1" d="M293.3,341.3h-18.7c-4.4,0-8-3.6-8-8c0-4.4,3.6-8,8-8h18.7c5.9,0,10.7-4.8,10.7-10.7s-4.8-10.7-10.7-10.7h-18.7
	c-4.4,0-8-3.6-8-8v-32c0-4.4,3.6-8,8-8H312c4.4,0,8,3.6,8,8s-3.6,8-8,8h-29.3v16h10.7c14.7,0,26.7,12,26.7,26.7
	S308,341.3,293.3,341.3z"/>
<path class="st2" d="M352,160H160c-17.6,0-32,14.4-32,32v160c0,17.6,14.4,32,32,32h192c17.6,0,32-14.4,32-32V192
	C384,174.4,369.6,160,352,160z M362.7,352c0,5.9-4.8,10.7-10.7,10.7H160c-5.9,0-10.7-4.8-10.7-10.7V235.1h213.3L362.7,352L362.7,352
	z"/>
<g>
	<path class="st1" d="M192,128h-10.7c-5.9,0-10.7,4.8-10.7,10.7v42.7c0,5.9,4.8,10.7,10.7,10.7H192c5.9,0,10.7-4.8,10.7-10.7v-42.7
		C202.7,132.8,197.9,128,192,128z"/>
	<path class="st1" d="M330.7,128H320c-5.9,0-10.7,4.8-10.7,10.7v42.7c0,5.9,4.8,10.7,10.7,10.7h10.7c5.9,0,10.7-4.8,10.7-10.7v-42.7
		C341.3,132.8,336.6,128,330.7,128z"/>
</g>
</svg>
